<?xml version="1.0" encoding="UTF-8" standalone="no"?>
<svg width="36px" height="36px" viewBox="0 0 36 36" version="1.1" xmlns="http://www.w3.org/2000/svg" xmlns:xlink="http://www.w3.org/1999/xlink">
    <!-- Generator: Sketch 41.2 (35397) - http://www.bohemiancoding.com/sketch -->
    <title>Page-1</title>
    <desc>Created with Sketch.</desc>
    <defs></defs>
    <g id="Page-1" stroke="none" stroke-width="1" fill="none" fill-rule="evenodd" opacity="0.308360541">
        <g id="background" transform="translate(-605.000000, -650.000000)" fill="#4A4A4A">
            <g id="Page-1">
                <g id="Pre-hover">
                    <g id="Group-4" transform="translate(132.000000, 155.000000)">
                        <g id="Group-5">
                            <g id="Group-6" transform="translate(446.000000, 468.000000)">
                                <path d="M62.2821333,58.8208 L55.0570667,51.5978667 C59.4592,45.5354667 58.9301333,37.0064 53.4634667,31.5418667 C50.4362667,28.5146667 46.4698667,27 42.5029333,27 C38.5344,27 34.5674667,28.5146667 31.5408,31.5418667 C25.4864,37.5957333 25.4864,47.4122667 31.5408,53.4666667 C34.5674667,56.4938667 38.5365333,58.0085333 42.5029333,58.0085333 C45.6986667,58.0085333 48.8928,57.0250667 51.5968,55.0602667 L58.8197333,62.2832 C59.2970667,62.7605333 59.9237333,63 60.5509333,63 C61.1781333,63 61.8053333,62.7605333 62.2821333,62.2832 C63.2384,61.3269333 63.2384,59.7770667 62.2821333,58.8208 L62.2821333,58.8208 Z M33.9637333,51.0416 C29.2549333,46.3333333 29.2549333,38.6709333 33.9637333,33.9626667 C36.2448,31.6810667 39.2778667,30.4250667 42.5029333,30.4250667 C45.728,30.4250667 48.7616,31.6810667 51.0426667,33.9626667 C55.7509333,38.6709333 55.7509333,46.3333333 51.0426667,51.0416 C48.7616,53.3226667 45.728,54.5792 42.5029333,54.5792 C39.2762667,54.5792 36.2448,53.3226667 33.9637333,51.0416 L33.9637333,51.0416 Z" id="Page-1"></path>
                            </g>
                        </g>
                    </g>
                </g>
            </g>
        </g>
    </g>
</svg>